<svg xmlns="http://www.w3.org/2000/svg" enable-background="new 0 0 32 32" viewBox="0 0 32 32" id="story-telling">
  <path d="M23.82 9.653v4.804c0 .14-.109.251-.25.252-1.234.008-2.61.19-4.064.589-.163.045-.325-.073-.325-.242v-4.791c0-.115.075-.219.185-.252 1.361-.415 2.792-.607 4.192-.622C23.702 9.39 23.82 9.509 23.82 9.653zM13.73 14.984c-.08.347-.389.581-.73.581-.056 0-.113-.006-.17-.02-1.185-.274-2.488-.453-3.873-.531-.414-.023-.73-.378-.707-.791.024-.413.383-.737.791-.707 1.47.083 2.859.274 4.127.568C13.573 14.179 13.824 14.581 13.73 14.984zM8.251 9.924C8.275 9.51 8.634 9.197 9.042 9.217c1.47.083 2.859.274 4.127.568.403.094.655.496.561.899-.08.347-.389.581-.73.581-.056 0-.113-.006-.17-.02-1.185-.274-2.488-.453-3.873-.531C8.544 10.691 8.228 10.337 8.251 9.924z"></path>
  <path d="M28,2H4C2.895,2,2,2.895,2,4v17c0,1.105,0.895,2,2,2h4v6.73c0,0.241,0.295,0.358,0.46,0.183L15,23h13c1.105,0,2-0.895,2-2V4
	C30,2.895,29.105,2,28,2z M15.25,20.235c-2.753-0.988-6.316-1.328-8.97-1.006C6.128,19.247,6,19.131,6,18.977V5.746
	c0-0.131,0.093-0.244,0.224-0.261c2.659-0.334,6.254,0.004,9.026,0.999V20.235z M26,18.977c0,0.154-0.128,0.27-0.28,0.252
	c-2.653-0.322-6.217,0.018-8.97,1.006V6.485c2.772-0.995,6.367-1.333,9.026-0.999C25.907,5.502,26,5.615,26,5.746V18.977z"></path>
</svg>
