<svg xmlns="http://www.w3.org/2000/svg" viewBox="0 0 512 512" id="emoticon">
  <path d="M384.88 468a7.5 7.5 0 0 0 7.5 7.5H409v-15h-16.62a7.5 7.5 0 0 0-7.5 7.5zm-22.8-7.5h-30.31a7.5 7.5 0 0 0 0 15h30.31a7.5 7.5 0 0 0 0-15zm-121.23 0h-30.31a7.5 7.5 0 1 0 0 15h30.31a7.5 7.5 0 1 0 0-15zm-121.23 0H103v15h16.62a7.5 7.5 0 0 0 0-15zm181.84 0h-30.31a7.5 7.5 0 0 0 0 15h30.31a7.5 7.5 0 1 0 0-15zm-121.23 0h-30.31a7.5 7.5 0 1 0 0 15h30.31a7.5 7.5 0 1 0 0-15zM36.5 240.85a7.5 7.5 0 1 0 15 0v-30.31a7.5 7.5 0 0 0-15 0zm0 60.61a7.5 7.5 0 0 0 15 0v-30.31a7.5 7.5 0 0 0-15 0zm0-121.23a7.5 7.5 0 0 0 15 0v-30.31a7.5 7.5 0 0 0-15 0zm7.5-53.11a7.5 7.5 0 0 0 7.5-7.5V103h-15v16.62a7.5 7.5 0 0 0 7.5 7.5zm-7.5 234.96a7.5 7.5 0 0 0 15 0v-30.31a7.5 7.5 0 0 0-15 0zm0 46.92h15v-16.62a7.5 7.5 0 0 0-15 0zM149.92 51.5h30.31a7.5 7.5 0 0 0 0-15h-30.31a7.5 7.5 0 0 0 0 15zm-22.8-7.5a7.5 7.5 0 0 0-7.5-7.5H103v15h16.62a7.5 7.5 0 0 0 7.5-7.5zm265.26 7.5H409v-15h-16.62a7.5 7.5 0 0 0 0 15zm-121.23 0h30.31a7.5 7.5 0 0 0 0-15h-30.31a7.5 7.5 0 0 0 0 15zm-60.61 0h30.31a7.5 7.5 0 1 0 0-15h-30.31a7.5 7.5 0 0 0 0 15zm121.23 0h30.31a7.5 7.5 0 0 0 0-15h-30.31a7.5 7.5 0 0 0 0 15zM460.5 180.23a7.5 7.5 0 1 0 15 0v-30.31a7.5 7.5 0 1 0-15 0zm0 121.23a7.5 7.5 0 1 0 15 0v-30.31a7.5 7.5 0 0 0-15 0zm0 60.62a7.5 7.5 0 0 0 15 0v-30.31a7.5 7.5 0 0 0-15 0zm0 46.92h15v-16.62a7.5 7.5 0 0 0-15 0zm7.5-281.88a7.5 7.5 0 0 0 7.5-7.5V103h-15v16.62a7.5 7.5 0 0 0 7.5 7.5zm-7.5 113.73a7.5 7.5 0 1 0 15 0v-30.31a7.5 7.5 0 1 0-15 0z"></path>
  <rect width="88" height="88" x="424" y="424" rx="27.5" ry="27.5"></rect>
  <rect width="88" height="88" rx="27.5" ry="27.5"></rect>
  <rect width="88" height="88" x="424" rx="27.5" ry="27.5"></rect>
  <rect width="88" height="88" y="424" rx="27.5" ry="27.5"></rect>
  <path d="M256 336a37.28 37.28 0 0 0-34.69 23.24 92.41 92.41 0 0 0 69.39 0A37.28 37.28 0 0 0 256 336Z"></path>
  <path d="M207.9 352.46a52.5 52.5 0 0 1 96.2 0A92.6 92.6 0 0 0 348.2 281H163.8a92.59 92.59 0 0 0 44.1 71.46Z"></path>
  <path d="M256 96c-92.36 0-167.5 75.14-167.5 167.5S163.64 431 256 431s167.5-75.14 167.5-167.5S348.36 96 256 96ZM140.7 219.35a7.5 7.5 0 0 1 0-10.61 49.93 49.93 0 0 1 70.6 0 7.5 7.5 0 1 1-10.6 10.61 34.93 34.93 0 0 0-49.4 0 7.49 7.49 0 0 1-10.6 0ZM256 381a107.62 107.62 0 0 1-107.5-107.5 7.5 7.5 0 0 1 7.5-7.5h200a7.5 7.5 0 0 1 7.5 7.5A107.62 107.62 0 0 1 256 381Zm115.3-161.65a7.48 7.48 0 0 1-10.6 0 34.93 34.93 0 0 0-49.4 0 7.5 7.5 0 1 1-10.6-10.61 49.93 49.93 0 0 1 70.6 0 7.5 7.5 0 0 1 0 10.61Z"></path>
</svg>
